<svg id="Layer_1" data-name="Layer 1" xmlns="http://www.w3.org/2000/svg" viewBox="0 0 112.66 112.66"><defs><style>.cls-1{fill:#a59f9f;}.cls-2{fill:#336620;}.cls-3{fill:#020504;}</style></defs><title>ddlogo</title><circle class="cls-1" cx="56.33" cy="56.33" r="56.33"/><path class="cls-2" d="M189.11,118.77,161.3,91.17a11.34,11.34,0,0,0-9.17-4.67h-.79a11.34,11.34,0,0,0-10.51,15.6l1.34,3.3,13.47,13.37a11.34,11.34,0,0,1,.05,13.26l-.08.1-14,13-.79,1.94a11.34,11.34,0,0,0,10.51,15.6h.77A11.33,11.33,0,0,0,161.3,158l27.82-25.93A11.33,11.33,0,0,0,189.11,118.77Z" transform="translate(-86.79 -70.28)"/><path class="cls-3" d="M148.23,120.34l-6.06-14.94L127.83,91.17a11.34,11.34,0,0,0-9.17-4.67h0a11.86,11.86,0,0,0-11,16.32l7,17.32a11.87,11.87,0,0,1,0,8.92l-7,17.33a11.86,11.86,0,0,0,11,16.31,11.32,11.32,0,0,0,9.18-4.69l13.79-12.85,6.61-16.3A11.32,11.32,0,0,0,148.23,120.34Z" transform="translate(-86.79 -70.28)"/><path class="cls-3" d="M155.69,132a11.34,11.34,0,0,0-.05-13.26L142.17,105.4l6.06,14.94a11.32,11.32,0,0,1,0,8.52l-6.61,16.3,14-13Z" transform="translate(-86.79 -70.28)"/></svg>